<?xml version="1.0" standalone="no"?>
<!DOCTYPE svg PUBLIC "-//W3C//DTD SVG 20010904//EN"
 "http://www.w3.org/TR/2001/REC-SVG-20010904/DTD/svg10.dtd">
<svg version="1.0" xmlns="http://www.w3.org/2000/svg"
 width="228.000000pt" height="228.000000pt" viewBox="0 0 228.000000 228.000000"
 preserveAspectRatio="xMidYMid meet">
<metadata>
Created by potrace 1.11, written by Peter Selinger 2001-2013
</metadata>
<g transform="translate(0.000000,228.000000) scale(0.100000,-0.100000)"
fill="#000000" stroke="none">
<path d="M290 1552 c0 -698 1 -732 20 -808 39 -151 124 -299 232 -401 98 -92
327 -231 489 -298 l81 -33 61 25 c181 73 414 216 518 318 104 102 178 229 219
378 19 68 20 104 20 809 l0 738 -820 0 -820 0 0 -728z m112 641 l78 -78 0
-112 c0 -62 -3 -113 -6 -113 -3 0 -41 32 -85 72 l-79 72 0 118 c0 65 3 118 7
118 4 0 43 -35 85 -77z m225 45 l33 -32 0 -113 c0 -62 -3 -113 -6 -113 -4 0
-42 32 -85 71 l-79 71 0 74 0 74 52 0 c45 0 57 -4 85 -32z m213 -69 c0 -57 -4
-99 -9 -97 -5 2 -44 34 -85 71 -62 56 -76 74 -76 98 l0 29 85 0 85 0 0 -101z
m180 40 l0 -61 -60 52 c-33 29 -63 56 -66 61 -3 5 24 9 60 9 l66 0 0 -61z
m180 45 c0 -14 -3 -14 -15 -4 -8 7 -15 14 -15 16 0 2 7 4 15 4 8 0 15 -7 15
-16z m495 -27 l45 -44 0 -112 c0 -65 -4 -111 -9 -109 -5 2 -43 32 -85 68 l-75
65 0 88 -1 87 40 0 c33 0 47 -7 85 -43z m225 -73 l0 -116 -30 25 c-134 113
-140 120 -140 165 l0 42 85 0 85 0 0 -116z m-360 -172 c0 -66 -4 -112 -9 -110
-5 2 -44 34 -85 71 l-76 68 0 127 0 127 85 -85 85 -85 0 -113z m-182 -47 l-3
-70 -47 -3 c-40 -3 -51 1 -82 29 l-36 31 0 126 0 127 85 -85 86 -85 -3 -70z
m-180 -45 c-3 -24 -6 -25 -85 -28 l-83 -3 0 113 0 113 85 -85 c68 -68 85 -90
83 -110z m-278 35 l64 -65 -67 0 -67 0 0 65 c0 36 1 65 3 65 1 0 32 -29 67
-65z m-225 -45 c18 -19 17 -20 -3 -20 -15 0 -22 6 -22 20 0 11 2 20 3 20 2 0
12 -9 22 -20z m1070 -10 c3 -5 1 -10 -4 -10 -6 0 -11 5 -11 10 0 6 2 10 4 10
3 0 8 -4 11 -10z m155 -475 l0 -455 -405 0 -405 0 0 -456 0 -455 -22 6 c-58
16 -282 133 -385 201 -132 87 -207 158 -270 256 -82 127 -123 250 -123 371 l0
77 400 0 400 0 0 455 0 455 405 0 405 0 0 -455z m-900 -80 l0 -285 -300 0
-300 0 0 25 0 25 273 2 272 3 0 70 0 70 -142 3 -143 3 0 24 0 24 143 3 142 3
3 158 3 157 24 0 25 0 0 -285z m780 -495 l0 -30 -270 0 -270 0 0 -70 0 -69
143 -3 142 -3 3 -27 3 -28 -145 0 -146 0 0 -160 0 -160 -30 0 -30 0 0 283 c0
156 3 287 7 290 3 4 138 7 300 7 l293 0 0 -30z"/>
<path d="M1190 1322 l0 -300 28 -3 c15 -3 153 -4 307 -4 l280 0 3 38 3 37
-270 0 -271 0 0 65 0 65 145 0 145 0 0 35 0 35 -145 0 -145 0 -2 163 -3 162
-37 3 -38 3 0 -299z"/>
<path d="M410 820 l0 -40 270 0 270 0 0 -60 0 -60 -140 0 -140 0 0 -40 0 -40
140 0 140 0 0 -160 0 -160 40 0 40 0 0 300 0 300 -310 0 -310 0 0 -40z"/>
</g>
</svg>
